<svg width="120" height="120" viewBox="0 0 120 120" fill="none" xmlns="http://www.w3.org/2000/svg">
<path d="M107.8 53.7001L101 45.8001C99.7 44.3001 98.65 41.5001 98.65 39.5001V31C98.65 25.7001 94.3 21.35 89 21.35H80.5C78.55 21.35 75.7 20.3 74.2 19L66.3 12.2C62.85 9.25005 57.2 9.25005 53.7 12.2L45.85 19.05C44.35 20.3 41.5 21.35 39.55 21.35H30.9C25.6 21.35 21.25 25.7001 21.25 31V39.5501C21.25 41.5001 20.2 44.3001 18.95 45.8001L12.2 53.75C9.30002 57.2001 9.30002 62.8001 12.2 66.2501L18.95 74.2001C20.2 75.7001 21.25 78.5001 21.25 80.4501V89.0001C21.25 94.3 25.6 98.6501 30.9 98.6501H39.55C41.5 98.6501 44.35 99.7001 45.85 101L53.75 107.8C57.2 110.75 62.85 110.75 66.35 107.8L74.25 101C75.75 99.7001 78.55 98.6501 80.55 98.6501H89.05C94.35 98.6501 98.7 94.3 98.7 89.0001V80.5001C98.7 78.5501 99.75 75.7001 101.05 74.2001L107.85 66.3001C110.75 62.8501 110.75 57.1501 107.8 53.7001ZM83.4 60.0001L77.55 77.8001C76.8 80.7501 73.65 83.15 70.45 83.15H61.2C59.6 83.15 57.35 82.6001 56.35 81.6001L49 75.8501C48.85 79.0501 47.4 80.4001 43.85 80.4001H41.45C37.75 80.4001 36.25 78.9501 36.25 75.4501V51.5501C36.25 48.0501 37.75 46.6001 41.45 46.6001H43.9C47.6 46.6001 49.1 48.0501 49.1 51.5501V53.3501L58.8 38.9501C59.8 37.4001 62.35 36.3001 64.5 37.1501C66.85 37.9501 68.35 40.5501 67.85 42.8501L66.65 50.6501C66.55 51.3501 66.7 52 67.15 52.5C67.55 52.9501 68.15 53.25 68.8 53.25H78.55C80.45 53.25 82.05 54 83 55.35C83.85 56.6501 84 58.3001 83.4 60.0001Z" fill="#FCA311"/>
</svg>
