<svg width="60" height="60" viewBox="0 0 60 60" fill="none" xmlns="http://www.w3.org/2000/svg">
<path d="M52.375 10.325L10.325 52.375C12.7 54.0999 15.8 54.9999 19.525 54.9999H40.475C49.575 54.9999 54.9999 49.575 54.9999 40.475V19.525C54.9999 15.8 54.0999 12.7 52.375 10.325ZM46.25 40.625H42.025V45C42.025 46.025 41.1749 46.875 40.15 46.875C39.125 46.875 38.275 46.025 38.275 45V40.625H33.75C32.725 40.625 31.875 39.775 31.875 38.75C31.875 37.725 32.725 36.875 33.75 36.875H38.275V32.5C38.275 31.475 39.125 30.625 40.15 30.625C41.1749 30.625 42.025 31.475 42.025 32.5V36.875H46.25C47.275 36.875 48.125 37.725 48.125 38.75C48.125 39.775 47.275 40.625 46.25 40.625Z" fill="#345CB2"/>
<path d="M40.475 5H19.525C10.425 5 5 10.425 5 19.525V40.475C5 44.2 5.9 47.3 7.625 49.675L49.675 7.625C47.3 5.9 44.2 5 40.475 5ZM26.25 20.625H13.75C12.725 20.625 11.875 19.775 11.875 18.75C11.875 17.725 12.725 16.875 13.75 16.875H26.25C27.275 16.875 28.125 17.725 28.125 18.75C28.125 19.775 27.275 20.625 26.25 20.625Z" fill="#345CB2"/>
</svg>
