<svg width="188" height="150" viewBox="0 0 188 150" fill="none" xmlns="http://www.w3.org/2000/svg">
<rect x="0.25" width="187.5" height="150" fill="white"/>
<path fill-rule="evenodd" clip-rule="evenodd" d="M47.5 100.5H115.75C116.136 100.5 116.513 100.458 116.875 100.379C117.237 100.458 117.614 100.5 118 100.5H157C159.899 100.5 162.25 98.1495 162.25 95.25C162.25 92.3505 159.899 90 157 90H152.5C149.601 90 147.25 87.6495 147.25 84.75C147.25 81.8505 149.601 79.5 152.5 79.5H166.75C169.649 79.5 172 77.1495 172 74.25C172 71.3505 169.649 69 166.75 69H150.25C153.149 69 155.5 66.6495 155.5 63.75C155.5 60.8505 153.149 58.5 150.25 58.5H102.25C105.149 58.5 107.5 56.1495 107.5 53.25C107.5 50.3505 105.149 48 102.25 48H59.5C56.6005 48 54.25 50.3505 54.25 53.25C54.25 56.1495 56.6005 58.5 59.5 58.5H29.5C26.6005 58.5 24.25 60.8505 24.25 63.75C24.25 66.6495 26.6005 69 29.5 69H48.25C51.1495 69 53.5 71.3505 53.5 74.25C53.5 77.1495 51.1495 79.5 48.25 79.5H18.25C15.3505 79.5 13 81.8505 13 84.75C13 87.6495 15.3505 90 18.25 90H47.5C44.6005 90 42.25 92.3505 42.25 95.25C42.25 98.1495 44.6005 100.5 47.5 100.5ZM169.75 100.5C172.649 100.5 175 98.1495 175 95.25C175 92.3505 172.649 90 169.75 90C166.851 90 164.5 92.3505 164.5 95.25C164.5 98.1495 166.851 100.5 169.75 100.5Z" fill="#F3F7FF"/>
<path d="M125.5 111H142.321M48.25 111H64.3406H48.25ZM38.5959 111H43.75H38.5959ZM145.846 111H148H145.846Z" stroke="#345CB2" stroke-width="1.875" stroke-linecap="round" stroke-linejoin="round"/>
<path d="M73.75 32.4771L82.0747 41.8169M112.825 32.4771L104.5 41.8169L112.825 32.4771ZM93.25 29.25V41.8169V29.25Z" stroke="#FCA311" stroke-width="1.875" stroke-linecap="round" stroke-linejoin="round"/>
<path fill-rule="evenodd" clip-rule="evenodd" d="M69.8482 53.25H116.803L112.598 59.5574L118.205 63.7623H68.4465L74.7539 59.5574L69.8482 53.25Z" fill="#E8F0FE"/>
<rect x="67" y="62.25" width="53.25" height="56.25" rx="1.5" fill="white"/>
<path fill-rule="evenodd" clip-rule="evenodd" d="M70.439 93.0046V67.234C70.439 66.1722 71.3091 65.3115 72.3826 65.3115L118.115 113.373C118.115 114.789 116.982 115.937 115.584 115.937H72.9702C71.5722 115.937 70.439 114.789 70.439 113.373V103.796V101.198V93.0046ZM70.439 98.5686V95.6824Z" fill="#E8F0FE"/>
<path d="M67.75 93.3473V65.164C67.75 64.0028 68.7029 63.0615 69.8783 63.0615H118.571C119.336 63.0615 119.957 63.6891 119.957 64.4632V115.623C119.957 117.171 118.716 118.426 117.185 118.426H70.5217C68.9909 118.426 67.75 117.171 67.75 115.623V105.149V102.307M67.75 99.4323V96.2759" stroke="#345CB2" stroke-width="1.875" stroke-linecap="round"/>
<path d="M69.1473 63.0614V54.6516C69.1473 53.8775 69.7105 53.2499 70.4052 53.2499L116.947 53.2499C117.642 53.2499 118.205 53.8775 118.205 54.6516V63.0614" stroke="#345CB2" stroke-width="1.875"/>
<path d="M82.1125 77.7787C83.4672 77.7787 84.5654 76.6805 84.5654 75.3258C84.5654 73.9711 83.4672 72.8729 82.1125 72.8729C80.7579 72.8729 79.6597 73.9711 79.6597 75.3258C79.6597 76.6805 80.7579 77.7787 82.1125 77.7787Z" fill="#E8F0FE" stroke="#345CB2" stroke-width="1.875" stroke-linecap="round"/>
<path d="M105.239 77.7787C106.594 77.7787 107.692 76.6805 107.692 75.3258C107.692 73.9711 106.594 72.8729 105.239 72.8729C103.885 72.8729 102.787 73.9711 102.787 75.3258C102.787 76.6805 103.885 77.7787 105.239 77.7787Z" fill="#E8F0FE" stroke="#345CB2" stroke-width="1.875" stroke-linecap="round"/>
<path d="M104.889 77.7787C104.889 83.9715 99.8688 88.9918 93.676 88.9918C87.4832 88.9918 82.4629 83.9715 82.4629 77.7787" stroke="#345CB2" stroke-width="1.875" stroke-linecap="round"/>
<path d="M69.8909 53.9486L74.8247 58.8189C75.1195 59.1098 75.1226 59.5847 74.8316 59.8795C74.7813 59.9305 74.7238 59.974 74.6611 60.0088L69.1473 63.0615" stroke="#345CB2" stroke-width="1.875" stroke-linecap="round"/>
<path d="M117.58 53.9995L112.859 58.8149C112.569 59.1106 112.573 59.5855 112.869 59.8755C112.919 59.9239 112.974 59.9652 113.035 59.9983L118.651 63.0616" stroke="#345CB2" stroke-width="1.875" stroke-linecap="round"/>
</svg>
