<svg width="60" height="60" viewBox="0 0 60 60" fill="none" xmlns="http://www.w3.org/2000/svg">
<path d="M50.1001 17.05L35.7001 6.97497C31.7751 4.22497 25.7501 4.37497 21.9751 7.29997L9.4501 17.075C6.9501 19.025 4.9751 23.025 4.9751 26.175V43.425C4.9751 49.8 10.1501 55 16.5251 55H43.4751C49.8501 55 55.0251 49.825 55.0251 43.45V26.5C55.0251 23.125 52.8501 18.975 50.1001 17.05ZM42.2001 33.5C42.2001 34.475 41.4251 35.25 40.4501 35.25C39.4751 35.25 38.7001 34.475 38.7001 33.5V33.05L31.9001 39.85C31.5251 40.225 31.0251 40.4 30.5001 40.35C30.0001 40.3 29.5251 40 29.2501 39.575L26.7001 35.775L20.7501 41.725C20.4001 42.075 19.9751 42.225 19.5251 42.225C19.0751 42.225 18.6251 42.05 18.3001 41.725C17.6251 41.05 17.6251 39.95 18.3001 39.25L25.7501 31.8C26.1251 31.425 26.6251 31.25 27.1501 31.3C27.6751 31.35 28.1501 31.625 28.4251 32.075L30.9751 35.875L36.2501 30.6H35.8001C34.8251 30.6 34.0501 29.825 34.0501 28.85C34.0501 27.875 34.8251 27.1 35.8001 27.1H40.4501C40.6751 27.1 40.9001 27.15 41.1251 27.225C41.5501 27.4 41.9001 27.75 42.0751 28.175C42.1751 28.4 42.2001 28.625 42.2001 28.85V33.5Z" fill="#345CB2"/>
</svg>
