<svg width="24" height="23" viewBox="0 0 24 23" fill="none" xmlns="http://www.w3.org/2000/svg">
<path d="M11.0719 19.2688C15.737 19.2688 19.5188 15.487 19.5188 10.8219C19.5188 6.1568 15.737 2.375 11.0719 2.375C6.4068 2.375 2.625 6.1568 2.625 10.8219C2.625 15.487 6.4068 19.2688 11.0719 19.2688Z" fill="#859DD2"/>
<path d="M21.3656 18.2656C21.0562 17.6937 20.4 17.375 19.5187 17.375C18.8531 17.375 18.2812 17.6469 17.9437 18.1156C17.6062 18.5844 17.5312 19.2125 17.7375 19.8406C18.1406 21.0594 18.8437 21.3312 19.2281 21.3781C19.2844 21.3875 19.3406 21.3875 19.4062 21.3875C19.8187 21.3875 20.4562 21.2094 21.075 20.2812C21.5719 19.5594 21.6656 18.8375 21.3656 18.2656Z" fill="#859DD2"/>
</svg>
