<svg width="234" height="58" viewBox="0 0 234 58" fill="none" xmlns="http://www.w3.org/2000/svg">
<rect width="234" height="58" rx="29" fill="#FCA311"/>
<path fill-rule="evenodd" clip-rule="evenodd" d="M193.058 27.8075C193.116 27.7493 193.185 27.7031 193.26 27.6716C193.336 27.6401 193.418 27.6239 193.5 27.6239C193.582 27.6239 193.664 27.6401 193.74 27.6716C193.815 27.7031 193.884 27.7493 193.943 27.8075L201 34.8663L208.058 27.8075C208.116 27.7494 208.185 27.7033 208.261 27.6719C208.336 27.6404 208.418 27.6242 208.5 27.6242C208.582 27.6242 208.664 27.6404 208.739 27.6719C208.815 27.7033 208.884 27.7494 208.943 27.8075C209.001 27.8656 209.047 27.9346 209.078 28.0105C209.11 28.0865 209.126 28.1678 209.126 28.25C209.126 28.3322 209.11 28.4136 209.078 28.4895C209.047 28.5654 209.001 28.6344 208.943 28.6925L201.443 36.1925C201.384 36.2507 201.315 36.2969 201.24 36.3284C201.164 36.3599 201.082 36.3761 201 36.3761C200.918 36.3761 200.836 36.3599 200.76 36.3284C200.685 36.2969 200.616 36.2507 200.558 36.1925L193.058 28.6925C192.999 28.6345 192.953 28.5655 192.922 28.4896C192.89 28.4136 192.874 28.3322 192.874 28.25C192.874 28.1678 192.89 28.0864 192.922 28.0105C192.953 27.9345 192.999 27.8656 193.058 27.8075Z" fill="white"/>
<path d="M56.7068 39L62.4708 22.61H65.6828L71.4468 39H68.6748L67.4208 35.326H60.7548L59.4788 39H56.7068ZM61.5028 33.016H66.6288L63.7248 24.436H64.4508L61.5028 33.016ZM73.1493 39V22.346H75.6353V33.5L74.6673 33.258L80.6293 27.098H83.7313L79.2433 31.872L83.9293 39H81.0693L76.8893 32.686L78.3633 32.488L74.8433 36.228L75.6353 34.578V39H73.1493ZM90.0317 39.264C88.8144 39.264 87.7437 38.9633 86.8197 38.362C85.9104 37.7607 85.2724 36.954 84.9057 35.942L86.8197 35.04C87.1424 35.7147 87.5824 36.25 88.1397 36.646C88.7117 37.042 89.3424 37.24 90.0317 37.24C90.6184 37.24 91.095 37.108 91.4617 36.844C91.8284 36.58 92.0117 36.2207 92.0117 35.766C92.0117 35.4727 91.931 35.238 91.7697 35.062C91.6084 34.8713 91.403 34.7173 91.1537 34.6C90.919 34.4827 90.677 34.3947 90.4277 34.336L88.5577 33.808C87.531 33.5147 86.761 33.0747 86.2477 32.488C85.749 31.8867 85.4997 31.19 85.4997 30.398C85.4997 29.6793 85.683 29.056 86.0497 28.528C86.4164 27.9853 86.9224 27.5673 87.5677 27.274C88.213 26.9807 88.939 26.834 89.7457 26.834C90.831 26.834 91.799 27.1053 92.6497 27.648C93.5004 28.176 94.1017 28.9167 94.4537 29.87L92.5397 30.772C92.305 30.2 91.931 29.7453 91.4177 29.408C90.919 29.0707 90.3544 28.902 89.7237 28.902C89.181 28.902 88.7484 29.034 88.4257 29.298C88.103 29.5473 87.9417 29.8773 87.9417 30.288C87.9417 30.5667 88.015 30.8013 88.1617 30.992C88.3084 31.168 88.499 31.3147 88.7337 31.432C88.9684 31.5347 89.2104 31.6227 89.4597 31.696L91.3957 32.268C92.3784 32.5467 93.1337 32.9867 93.6617 33.588C94.1897 34.1747 94.4537 34.8787 94.4537 35.7C94.4537 36.404 94.263 37.0273 93.8817 37.57C93.515 38.098 93.0017 38.516 92.3417 38.824C91.6817 39.1173 90.9117 39.264 90.0317 39.264ZM102.478 39.264C101.29 39.264 100.234 38.9927 99.3095 38.45C98.4002 37.8927 97.6888 37.1447 97.1755 36.206C96.6622 35.2527 96.4055 34.1893 96.4055 33.016C96.4055 31.8133 96.6622 30.75 97.1755 29.826C97.7035 28.902 98.4075 28.176 99.2875 27.648C100.168 27.1053 101.165 26.834 102.28 26.834C103.174 26.834 103.974 26.988 104.678 27.296C105.382 27.604 105.976 28.0293 106.46 28.572C106.944 29.1 107.31 29.7087 107.559 30.398C107.824 31.0873 107.956 31.8207 107.956 32.598C107.956 32.7887 107.948 32.9867 107.934 33.192C107.919 33.3973 107.89 33.588 107.846 33.764H98.3635V31.784H106.438L105.25 32.686C105.396 31.9673 105.345 31.3293 105.096 30.772C104.861 30.2 104.494 29.7527 103.996 29.43C103.512 29.0927 102.94 28.924 102.28 28.924C101.62 28.924 101.033 29.0927 100.52 29.43C100.006 29.7527 99.6102 30.222 99.3315 30.838C99.0528 31.4393 98.9428 32.1727 99.0015 33.038C98.9282 33.8447 99.0382 34.5487 99.3315 35.15C99.6395 35.7513 100.065 36.2207 100.608 36.558C101.165 36.8953 101.796 37.064 102.5 37.064C103.218 37.064 103.827 36.9027 104.326 36.58C104.839 36.2573 105.242 35.8393 105.536 35.326L107.559 36.316C107.325 36.8733 106.958 37.3793 106.46 37.834C105.976 38.274 105.389 38.626 104.7 38.89C104.025 39.1393 103.284 39.264 102.478 39.264ZM114.782 39.264C113.564 39.264 112.494 38.9633 111.57 38.362C110.66 37.7607 110.022 36.954 109.656 35.942L111.57 35.04C111.892 35.7147 112.332 36.25 112.89 36.646C113.462 37.042 114.092 37.24 114.782 37.24C115.368 37.24 115.845 37.108 116.212 36.844C116.578 36.58 116.762 36.2207 116.762 35.766C116.762 35.4727 116.681 35.238 116.52 35.062C116.358 34.8713 116.153 34.7173 115.904 34.6C115.669 34.4827 115.427 34.3947 115.178 34.336L113.308 33.808C112.281 33.5147 111.511 33.0747 110.998 32.488C110.499 31.8867 110.25 31.19 110.25 30.398C110.25 29.6793 110.433 29.056 110.8 28.528C111.166 27.9853 111.672 27.5673 112.318 27.274C112.963 26.9807 113.689 26.834 114.496 26.834C115.581 26.834 116.549 27.1053 117.4 27.648C118.25 28.176 118.852 28.9167 119.204 29.87L117.29 30.772C117.055 30.2 116.681 29.7453 116.168 29.408C115.669 29.0707 115.104 28.902 114.474 28.902C113.931 28.902 113.498 29.034 113.176 29.298C112.853 29.5473 112.692 29.8773 112.692 30.288C112.692 30.5667 112.765 30.8013 112.912 30.992C113.058 31.168 113.249 31.3147 113.484 31.432C113.718 31.5347 113.96 31.6227 114.21 31.696L116.146 32.268C117.128 32.5467 117.884 32.9867 118.412 33.588C118.94 34.1747 119.204 34.8787 119.204 35.7C119.204 36.404 119.013 37.0273 118.632 37.57C118.265 38.098 117.752 38.516 117.092 38.824C116.432 39.1173 115.662 39.264 114.782 39.264ZM125.727 39V22.61H128.147L134.307 31.146H133.097L139.147 22.61H141.567V39H138.993V25.668L139.961 25.932L133.779 34.38H133.515L127.465 25.932L128.323 25.668V39H125.727ZM150.302 39.264C149.114 39.264 148.058 38.9927 147.134 38.45C146.224 37.8927 145.513 37.1447 145 36.206C144.486 35.2527 144.23 34.1893 144.23 33.016C144.23 31.8133 144.486 30.75 145 29.826C145.528 28.902 146.232 28.176 147.112 27.648C147.992 27.1053 148.989 26.834 150.104 26.834C150.998 26.834 151.798 26.988 152.502 27.296C153.206 27.604 153.8 28.0293 154.284 28.572C154.768 29.1 155.134 29.7087 155.384 30.398C155.648 31.0873 155.78 31.8207 155.78 32.598C155.78 32.7887 155.772 32.9867 155.758 33.192C155.743 33.3973 155.714 33.588 155.67 33.764H146.188V31.784H154.262L153.074 32.686C153.22 31.9673 153.169 31.3293 152.92 30.772C152.685 30.2 152.318 29.7527 151.82 29.43C151.336 29.0927 150.764 28.924 150.104 28.924C149.444 28.924 148.857 29.0927 148.344 29.43C147.83 29.7527 147.434 30.222 147.156 30.838C146.877 31.4393 146.767 32.1727 146.826 33.038C146.752 33.8447 146.862 34.5487 147.156 35.15C147.464 35.7513 147.889 36.2207 148.432 36.558C148.989 36.8953 149.62 37.064 150.324 37.064C151.042 37.064 151.651 36.9027 152.15 36.58C152.663 36.2573 153.066 35.8393 153.36 35.326L155.384 36.316C155.149 36.8733 154.782 37.3793 154.284 37.834C153.8 38.274 153.213 38.626 152.524 38.89C151.849 39.1393 151.108 39.264 150.302 39.264ZM158.206 39V27.098H160.582V29.43L160.296 29.122C160.589 28.374 161.059 27.8093 161.704 27.428C162.349 27.032 163.097 26.834 163.948 26.834C164.828 26.834 165.605 27.0247 166.28 27.406C166.955 27.7873 167.483 28.3153 167.864 28.99C168.245 29.6647 168.436 30.442 168.436 31.322V39H165.972V31.982C165.972 31.3807 165.862 30.8747 165.642 30.464C165.422 30.0387 165.107 29.716 164.696 29.496C164.3 29.2613 163.845 29.144 163.332 29.144C162.819 29.144 162.357 29.2613 161.946 29.496C161.55 29.716 161.242 30.0387 161.022 30.464C160.802 30.8893 160.692 31.3953 160.692 31.982V39H158.206ZM175.343 39.264C174.448 39.264 173.663 39.066 172.989 38.67C172.314 38.2593 171.786 37.6947 171.405 36.976C171.038 36.2427 170.855 35.3993 170.855 34.446V27.098H173.341V34.226C173.341 34.7687 173.451 35.2453 173.671 35.656C173.891 36.0667 174.199 36.3893 174.595 36.624C174.991 36.844 175.445 36.954 175.959 36.954C176.487 36.954 176.949 36.8367 177.345 36.602C177.741 36.3673 178.049 36.0373 178.269 35.612C178.503 35.1867 178.621 34.688 178.621 34.116V27.098H181.085V39H178.731V36.668L178.995 36.976C178.716 37.7093 178.254 38.274 177.609 38.67C176.963 39.066 176.208 39.264 175.343 39.264Z" fill="white"/>
<path d="M44.05 23.525L36.85 18.4875C34.8875 17.1125 31.875 17.1875 29.9875 18.65L23.725 23.5375C22.475 24.5125 21.4875 26.5125 21.4875 28.0875V36.7125C21.4875 39.9 24.075 42.5 27.2625 42.5H40.7375C43.925 42.5 46.5125 39.9125 46.5125 36.725V28.25C46.5125 26.5625 45.425 24.4875 44.05 23.525ZM40.1 31.75C40.1 32.2375 39.7125 32.625 39.225 32.625C38.7375 32.625 38.35 32.2375 38.35 31.75V31.525L34.95 34.925C34.7625 35.1125 34.5125 35.2 34.25 35.175C34 35.15 33.7625 35 33.625 34.7875L32.35 32.8875L29.375 35.8625C29.2 36.0375 28.9875 36.1125 28.7625 36.1125C28.5375 36.1125 28.3125 36.025 28.15 35.8625C27.8125 35.525 27.8125 34.975 28.15 34.625L31.875 30.9C32.0625 30.7125 32.3125 30.625 32.575 30.65C32.8375 30.675 33.075 30.8125 33.2125 31.0375L34.4875 32.9375L37.125 30.3H36.9C36.4125 30.3 36.025 29.9125 36.025 29.425C36.025 28.9375 36.4125 28.55 36.9 28.55H39.225C39.3375 28.55 39.45 28.575 39.5625 28.6125C39.775 28.7 39.95 28.875 40.0375 29.0875C40.0875 29.2 40.1 29.3125 40.1 29.425V31.75Z" fill="white"/>
</svg>
