<svg width="234" height="58" viewBox="0 0 234 58" fill="none" xmlns="http://www.w3.org/2000/svg">
<rect width="234" height="58" rx="29" fill="#FCA311"/>
<path fill-rule="evenodd" clip-rule="evenodd" d="M192.058 27.8075C192.116 27.7493 192.185 27.7031 192.26 27.6716C192.336 27.6401 192.418 27.6239 192.5 27.6239C192.582 27.6239 192.664 27.6401 192.74 27.6716C192.815 27.7031 192.884 27.7493 192.943 27.8075L200 34.8663L207.058 27.8075C207.116 27.7494 207.185 27.7033 207.261 27.6718C207.336 27.6404 207.418 27.6242 207.5 27.6242C207.582 27.6242 207.664 27.6404 207.739 27.6718C207.815 27.7033 207.884 27.7494 207.943 27.8075C208.001 27.8656 208.047 27.9346 208.078 28.0105C208.11 28.0864 208.126 28.1678 208.126 28.25C208.126 28.3322 208.11 28.4136 208.078 28.4895C208.047 28.5654 208.001 28.6344 207.943 28.6925L200.443 36.1925C200.384 36.2507 200.315 36.2969 200.24 36.3284C200.164 36.3599 200.082 36.3761 200 36.3761C199.918 36.3761 199.836 36.3599 199.76 36.3284C199.685 36.2969 199.616 36.2507 199.558 36.1925L192.058 28.6925C191.999 28.6344 191.953 28.5655 191.922 28.4895C191.89 28.4136 191.874 28.3322 191.874 28.25C191.874 28.1678 191.89 28.0864 191.922 28.0105C191.953 27.9345 191.999 27.8656 192.058 27.8075Z" fill="white"/>
<path d="M64.0885 39V22.61H69.4565C71.1579 22.61 72.6319 22.9547 73.8785 23.644C75.1399 24.3187 76.1152 25.272 76.8045 26.504C77.4939 27.736 77.8385 29.166 77.8385 30.794C77.8385 32.4073 77.4939 33.8373 76.8045 35.084C76.1152 36.316 75.1399 37.2767 73.8785 37.966C72.6319 38.6553 71.1579 39 69.4565 39H64.0885ZM66.6845 36.69H69.5005C70.6592 36.69 71.6639 36.448 72.5145 35.964C73.3799 35.48 74.0472 34.798 74.5165 33.918C74.9859 33.038 75.2205 31.9967 75.2205 30.794C75.2205 29.5913 74.9785 28.5573 74.4945 27.692C74.0252 26.812 73.3652 26.13 72.5145 25.646C71.6639 25.162 70.6592 24.92 69.5005 24.92H66.6845V36.69ZM83.6098 39.264C82.8031 39.264 82.0918 39.1247 81.4758 38.846C80.8744 38.5527 80.4051 38.1567 80.0678 37.658C79.7304 37.1447 79.5618 36.5433 79.5618 35.854C79.5618 35.2087 79.7011 34.6293 79.9798 34.116C80.2731 33.6027 80.7204 33.17 81.3218 32.818C81.9231 32.466 82.6784 32.2167 83.5878 32.07L87.7238 31.388V33.346L84.0718 33.984C83.4118 34.1013 82.9278 34.314 82.6198 34.622C82.3118 34.9153 82.1578 35.2967 82.1578 35.766C82.1578 36.2207 82.3264 36.5947 82.6638 36.888C83.0158 37.1667 83.4631 37.306 84.0058 37.306C84.6804 37.306 85.2671 37.1593 85.7658 36.866C86.2791 36.5727 86.6751 36.184 86.9538 35.7C87.2324 35.2013 87.3718 34.6513 87.3718 34.05V30.992C87.3718 30.4053 87.1518 29.9287 86.7118 29.562C86.2864 29.1807 85.7144 28.99 84.9958 28.99C84.3358 28.99 83.7564 29.166 83.2578 29.518C82.7738 29.8553 82.4144 30.2953 82.1798 30.838L80.1118 29.804C80.3318 29.2173 80.6911 28.704 81.1898 28.264C81.6884 27.8093 82.2678 27.4573 82.9278 27.208C83.6024 26.9587 84.3138 26.834 85.0617 26.834C86.0004 26.834 86.8291 27.01 87.5478 27.362C88.2811 27.714 88.8458 28.2053 89.2418 28.836C89.6524 29.452 89.8578 30.1707 89.8578 30.992V39H87.4818V36.844L87.9878 36.91C87.7091 37.394 87.3498 37.812 86.9098 38.164C86.4844 38.516 85.9931 38.7873 85.4358 38.978C84.8931 39.1687 84.2844 39.264 83.6098 39.264ZM97.1645 39.264C95.9472 39.264 94.8765 38.9633 93.9525 38.362C93.0432 37.7607 92.4052 36.954 92.0385 35.942L93.9525 35.04C94.2752 35.7147 94.7152 36.25 95.2725 36.646C95.8445 37.042 96.4752 37.24 97.1645 37.24C97.7512 37.24 98.2278 37.108 98.5945 36.844C98.9612 36.58 99.1445 36.2207 99.1445 35.766C99.1445 35.4727 99.0638 35.238 98.9025 35.062C98.7412 34.8713 98.5358 34.7173 98.2865 34.6C98.0518 34.4827 97.8098 34.3947 97.5605 34.336L95.6905 33.808C94.6638 33.5147 93.8938 33.0747 93.3805 32.488C92.8818 31.8867 92.6325 31.19 92.6325 30.398C92.6325 29.6793 92.8158 29.056 93.1825 28.528C93.5492 27.9853 94.0552 27.5673 94.7005 27.274C95.3458 26.9807 96.0718 26.834 96.8785 26.834C97.9638 26.834 98.9318 27.1053 99.7825 27.648C100.633 28.176 101.235 28.9167 101.587 29.87L99.6725 30.772C99.4378 30.2 99.0638 29.7453 98.5505 29.408C98.0518 29.0707 97.4872 28.902 96.8565 28.902C96.3138 28.902 95.8812 29.034 95.5585 29.298C95.2358 29.5473 95.0745 29.8773 95.0745 30.288C95.0745 30.5667 95.1478 30.8013 95.2945 30.992C95.4412 31.168 95.6318 31.3147 95.8665 31.432C96.1012 31.5347 96.3432 31.6227 96.5925 31.696L98.5285 32.268C99.5112 32.5467 100.267 32.9867 100.795 33.588C101.323 34.1747 101.587 34.8787 101.587 35.7C101.587 36.404 101.396 37.0273 101.015 37.57C100.648 38.098 100.135 38.516 99.4745 38.824C98.8145 39.1173 98.0445 39.264 97.1645 39.264ZM104.022 39V22.346H106.508V29.43L106.112 29.122C106.406 28.374 106.875 27.8093 107.52 27.428C108.166 27.032 108.914 26.834 109.764 26.834C110.644 26.834 111.422 27.0247 112.096 27.406C112.771 27.7873 113.299 28.3153 113.68 28.99C114.062 29.6647 114.252 30.4347 114.252 31.3V39H111.788V31.982C111.788 31.3807 111.671 30.8747 111.436 30.464C111.216 30.0387 110.908 29.716 110.512 29.496C110.116 29.2613 109.662 29.144 109.148 29.144C108.65 29.144 108.195 29.2613 107.784 29.496C107.388 29.716 107.073 30.0387 106.838 30.464C106.618 30.8893 106.508 31.3953 106.508 31.982V39H104.022ZM123.271 39.264C122.347 39.264 121.504 39.0733 120.741 38.692C119.993 38.3107 119.414 37.7607 119.003 37.042L119.289 36.58V39H116.913V22.346H119.399V29.562L119.003 28.99C119.443 28.3153 120.03 27.7873 120.763 27.406C121.496 27.0247 122.332 26.834 123.271 26.834C124.4 26.834 125.412 27.1053 126.307 27.648C127.216 28.1907 127.928 28.9313 128.441 29.87C128.969 30.8087 129.233 31.8647 129.233 33.038C129.233 34.2113 128.969 35.2673 128.441 36.206C127.928 37.1447 127.224 37.8927 126.329 38.45C125.434 38.9927 124.415 39.264 123.271 39.264ZM123.029 36.954C123.733 36.954 124.356 36.7853 124.899 36.448C125.442 36.1107 125.867 35.6487 126.175 35.062C126.498 34.4607 126.659 33.786 126.659 33.038C126.659 32.29 126.498 31.6227 126.175 31.036C125.867 30.4493 125.442 29.9873 124.899 29.65C124.356 29.3127 123.733 29.144 123.029 29.144C122.34 29.144 121.716 29.3127 121.159 29.65C120.616 29.9873 120.184 30.4493 119.861 31.036C119.553 31.6227 119.399 32.29 119.399 33.038C119.399 33.786 119.553 34.4607 119.861 35.062C120.184 35.6487 120.616 36.1107 121.159 36.448C121.716 36.7853 122.34 36.954 123.029 36.954ZM137.393 39.264C136.249 39.264 135.201 38.9927 134.247 38.45C133.309 37.9073 132.561 37.1667 132.003 36.228C131.446 35.2893 131.167 34.226 131.167 33.038C131.167 31.8353 131.446 30.772 132.003 29.848C132.561 28.9093 133.309 28.176 134.247 27.648C135.186 27.1053 136.235 26.834 137.393 26.834C138.567 26.834 139.615 27.1053 140.539 27.648C141.478 28.176 142.219 28.9093 142.761 29.848C143.319 30.772 143.597 31.8353 143.597 33.038C143.597 34.2407 143.319 35.3113 142.761 36.25C142.204 37.1887 141.456 37.9293 140.517 38.472C139.579 39 138.537 39.264 137.393 39.264ZM137.393 36.954C138.097 36.954 138.721 36.7853 139.263 36.448C139.806 36.1107 140.231 35.6487 140.539 35.062C140.862 34.4607 141.023 33.786 141.023 33.038C141.023 32.29 140.862 31.6227 140.539 31.036C140.231 30.4493 139.806 29.9873 139.263 29.65C138.721 29.3127 138.097 29.144 137.393 29.144C136.704 29.144 136.081 29.3127 135.523 29.65C134.981 29.9873 134.548 30.4493 134.225 31.036C133.917 31.6227 133.763 32.29 133.763 33.038C133.763 33.786 133.917 34.4607 134.225 35.062C134.548 35.6487 134.981 36.1107 135.523 36.448C136.081 36.7853 136.704 36.954 137.393 36.954ZM149.588 39.264C148.782 39.264 148.07 39.1247 147.454 38.846C146.853 38.5527 146.384 38.1567 146.046 37.658C145.709 37.1447 145.54 36.5433 145.54 35.854C145.54 35.2087 145.68 34.6293 145.958 34.116C146.252 33.6027 146.699 33.17 147.3 32.818C147.902 32.466 148.657 32.2167 149.566 32.07L153.702 31.388V33.346L150.05 33.984C149.39 34.1013 148.906 34.314 148.598 34.622C148.29 34.9153 148.136 35.2967 148.136 35.766C148.136 36.2207 148.305 36.5947 148.642 36.888C148.994 37.1667 149.442 37.306 149.984 37.306C150.659 37.306 151.246 37.1593 151.744 36.866C152.258 36.5727 152.654 36.184 152.932 35.7C153.211 35.2013 153.35 34.6513 153.35 34.05V30.992C153.35 30.4053 153.13 29.9287 152.69 29.562C152.265 29.1807 151.693 28.99 150.974 28.99C150.314 28.99 149.735 29.166 149.236 29.518C148.752 29.8553 148.393 30.2953 148.158 30.838L146.09 29.804C146.31 29.2173 146.67 28.704 147.168 28.264C147.667 27.8093 148.246 27.4573 148.906 27.208C149.581 26.9587 150.292 26.834 151.04 26.834C151.979 26.834 152.808 27.01 153.526 27.362C154.26 27.714 154.824 28.2053 155.22 28.836C155.631 29.452 155.836 30.1707 155.836 30.992V39H153.46V36.844L153.966 36.91C153.688 37.394 153.328 37.812 152.888 38.164C152.463 38.516 151.972 38.7873 151.414 38.978C150.872 39.1687 150.263 39.264 149.588 39.264ZM158.743 39V27.098H161.119V29.496L160.899 29.144C161.163 28.3667 161.588 27.8093 162.175 27.472C162.762 27.12 163.466 26.944 164.287 26.944H165.013V29.21H163.979C163.158 29.21 162.49 29.4667 161.977 29.98C161.478 30.4787 161.229 31.1973 161.229 32.136V39H158.743ZM172.214 39.264C171.07 39.264 170.043 38.9927 169.134 38.45C168.239 37.8927 167.528 37.1447 167 36.206C166.486 35.2673 166.23 34.2113 166.23 33.038C166.23 31.8647 166.494 30.8087 167.022 29.87C167.55 28.9313 168.261 28.1907 169.156 27.648C170.05 27.1053 171.062 26.834 172.192 26.834C173.145 26.834 173.988 27.0247 174.722 27.406C175.455 27.7873 176.034 28.3153 176.46 28.99L176.086 29.562V22.346H178.55V39H176.196V36.58L176.482 37.042C176.071 37.7607 175.484 38.3107 174.722 38.692C173.959 39.0733 173.123 39.264 172.214 39.264ZM172.456 36.954C173.145 36.954 173.761 36.7853 174.304 36.448C174.861 36.1107 175.294 35.6487 175.602 35.062C175.924 34.4607 176.086 33.786 176.086 33.038C176.086 32.29 175.924 31.6227 175.602 31.036C175.294 30.4493 174.861 29.9873 174.304 29.65C173.761 29.3127 173.145 29.144 172.456 29.144C171.766 29.144 171.143 29.3127 170.586 29.65C170.028 29.9873 169.596 30.4493 169.288 31.036C168.98 31.6227 168.826 32.29 168.826 33.038C168.826 33.786 168.98 34.4607 169.288 35.062C169.596 35.6487 170.021 36.1107 170.564 36.448C171.121 36.7853 171.752 36.954 172.456 36.954Z" fill="white"/>
<path d="M47.0501 23.525L39.85 18.4875C37.8875 17.1125 34.875 17.1875 32.9875 18.65L26.725 23.5375C25.475 24.5125 24.4875 26.5125 24.4875 28.0875V36.7125C24.4875 39.9 27.075 42.5 30.2625 42.5H43.7375C46.925 42.5 49.5126 39.9125 49.5126 36.725V28.25C49.5126 26.5625 48.4251 24.4875 47.0501 23.525ZM43.1 31.75C43.1 32.2375 42.7125 32.625 42.225 32.625C41.7375 32.625 41.35 32.2375 41.35 31.75V31.525L37.95 34.925C37.7625 35.1125 37.5125 35.2 37.25 35.175C37 35.15 36.7625 35 36.625 34.7875L35.35 32.8875L32.375 35.8625C32.2 36.0375 31.9875 36.1125 31.7625 36.1125C31.5375 36.1125 31.3125 36.025 31.15 35.8625C30.8125 35.525 30.8125 34.975 31.15 34.625L34.875 30.9C35.0625 30.7125 35.3125 30.625 35.575 30.65C35.8375 30.675 36.075 30.8125 36.2125 31.0375L37.4875 32.9375L40.125 30.3H39.9C39.4125 30.3 39.025 29.9125 39.025 29.425C39.025 28.9375 39.4125 28.55 39.9 28.55H42.225C42.3375 28.55 42.4501 28.575 42.5625 28.6125C42.775 28.7 42.95 28.875 43.0375 29.0875C43.0875 29.2 43.1 29.3125 43.1 29.425V31.75Z" fill="white"/>
</svg>
