<svg width="23" height="23" viewBox="0 0 23 23" fill="none" xmlns="http://www.w3.org/2000/svg">
<path d="M18.1955 4.72259C14.4726 0.999695 8.4265 0.999695 4.70359 4.72259C0.914043 8.51215 0.980693 14.6916 4.89402 18.405C8.51219 21.8232 14.3774 21.8232 17.9956 18.405C21.9184 14.6916 21.9851 8.51215 18.1955 4.72259ZM15.5962 15.8532C14.4536 16.9387 12.9492 17.4814 11.4448 17.4814C9.94041 17.4814 8.43602 16.9387 7.29344 15.8532C7.00779 15.5771 6.99827 15.1296 7.26487 14.8439C7.541 14.5583 7.98851 14.5488 8.27415 14.8154C10.0166 16.4626 12.8635 16.4721 14.6155 14.8154C14.9011 14.5488 15.3581 14.5583 15.6247 14.8439C15.9009 15.1296 15.8818 15.5771 15.5962 15.8532Z" fill="#FCA311"/>
<path d="M14.6514 6.24902L12.3794 4.93506C11.9443 4.68457 11.2632 4.68457 10.8281 4.93506L8.53418 6.25781C7.62451 6.87305 7.57178 6.96533 7.57178 7.94531V10.3315C7.57178 11.3115 7.62451 11.4082 8.55176 12.0322L10.8237 13.3462C11.0435 13.4736 11.3247 13.5352 11.6016 13.5352C11.8784 13.5352 12.1597 13.4736 12.375 13.3462L14.6689 12.0234C15.5786 11.4082 15.6313 11.3159 15.6313 10.3359V7.94531C15.6313 6.96533 15.5786 6.87305 14.6514 6.24902ZM11.6016 10.5688C10.8149 10.5688 10.1733 9.92725 10.1733 9.14062C10.1733 8.354 10.8149 7.7124 11.6016 7.7124C12.3882 7.7124 13.0298 8.354 13.0298 9.14062C13.0298 9.92725 12.3882 10.5688 11.6016 10.5688Z" fill="white"/>
</svg>
